<mxfile host="Electron" agent="Mozilla/5.0 (Macintosh; Intel Mac OS X 10_15_7) AppleWebKit/537.36 (KHTML, like Gecko) draw.io/26.2.15 Chrome/134.0.6998.205 Electron/35.2.1 Safari/537.36" version="26.2.15">
  <diagram name="Page-1" id="L6SslkQbH66uBqKBemiL">
    <mxGraphModel dx="1234" dy="946" grid="1" gridSize="10" guides="1" tooltips="1" connect="1" arrows="1" fold="1" page="1" pageScale="1" pageWidth="850" pageHeight="1100" math="0" shadow="0">
      <root>
        <mxCell id="0" />
        <mxCell id="1" parent="0" />
        <mxCell id="ZqqSYVQHT3AgXe19ILbb-1" value="Drug 1&amp;nbsp;" style="rounded=0;whiteSpace=wrap;html=1;fillColor=#fff2cc;strokeColor=#d6b656;" vertex="1" parent="1">
          <mxGeometry x="90" y="520" width="120" height="30" as="geometry" />
        </mxCell>
        <mxCell id="ZqqSYVQHT3AgXe19ILbb-2" value="&lt;h1 style=&quot;margin-top: 0px;&quot;&gt;Matrix Dataframe&lt;/h1&gt;&lt;p&gt;&lt;br&gt;&lt;/p&gt;" style="text;html=1;whiteSpace=wrap;overflow=hidden;rounded=0;" vertex="1" parent="1">
          <mxGeometry x="120" y="440" width="230" height="120" as="geometry" />
        </mxCell>
        <mxCell id="ZqqSYVQHT3AgXe19ILbb-3" value="Disease 1" style="rounded=0;whiteSpace=wrap;html=1;fillColor=#f8cecc;strokeColor=#b85450;" vertex="1" parent="1">
          <mxGeometry x="230" y="520" width="120" height="30" as="geometry" />
        </mxCell>
        <mxCell id="ZqqSYVQHT3AgXe19ILbb-4" value="Drug 1&amp;nbsp;" style="rounded=0;whiteSpace=wrap;html=1;fillColor=#fff2cc;strokeColor=#d6b656;" vertex="1" parent="1">
          <mxGeometry x="90" y="560" width="120" height="30" as="geometry" />
        </mxCell>
        <mxCell id="ZqqSYVQHT3AgXe19ILbb-5" value="Disease 2" style="rounded=0;whiteSpace=wrap;html=1;fillColor=#f8cecc;strokeColor=#b85450;" vertex="1" parent="1">
          <mxGeometry x="230" y="560" width="120" height="30" as="geometry" />
        </mxCell>
        <mxCell id="ZqqSYVQHT3AgXe19ILbb-6" value="Drug 1" style="rounded=0;whiteSpace=wrap;html=1;fillColor=#fff2cc;strokeColor=#d6b656;" vertex="1" parent="1">
          <mxGeometry x="90" y="610" width="120" height="30" as="geometry" />
        </mxCell>
        <mxCell id="ZqqSYVQHT3AgXe19ILbb-7" value="Disease 3" style="rounded=0;whiteSpace=wrap;html=1;fillColor=#f8cecc;strokeColor=#b85450;" vertex="1" parent="1">
          <mxGeometry x="230" y="610" width="120" height="30" as="geometry" />
        </mxCell>
        <mxCell id="ZqqSYVQHT3AgXe19ILbb-8" value="..." style="text;html=1;align=center;verticalAlign=middle;whiteSpace=wrap;rounded=0;fontStyle=1" vertex="1" parent="1">
          <mxGeometry x="190" y="660" width="60" height="30" as="geometry" />
        </mxCell>
        <mxCell id="ZqqSYVQHT3AgXe19ILbb-9" value="Drug n" style="rounded=0;whiteSpace=wrap;html=1;fillColor=#fff2cc;strokeColor=#d6b656;" vertex="1" parent="1">
          <mxGeometry x="90" y="700" width="120" height="30" as="geometry" />
        </mxCell>
        <mxCell id="ZqqSYVQHT3AgXe19ILbb-10" value="Disease n" style="rounded=0;whiteSpace=wrap;html=1;fillColor=#f8cecc;strokeColor=#b85450;" vertex="1" parent="1">
          <mxGeometry x="230" y="700" width="120" height="30" as="geometry" />
        </mxCell>
        <mxCell id="ZqqSYVQHT3AgXe19ILbb-11" value="" style="shape=flexArrow;endArrow=classic;html=1;rounded=0;" edge="1" parent="1">
          <mxGeometry width="50" height="50" relative="1" as="geometry">
            <mxPoint x="370" y="620" as="sourcePoint" />
            <mxPoint x="480" y="620" as="targetPoint" />
          </mxGeometry>
        </mxCell>
        <mxCell id="ZqqSYVQHT3AgXe19ILbb-13" value="Orchard&amp;nbsp;&lt;br&gt;Flags" style="text;html=1;align=center;verticalAlign=middle;whiteSpace=wrap;rounded=0;" vertex="1" parent="1">
          <mxGeometry x="390" y="560" width="60" height="30" as="geometry" />
        </mxCell>
        <mxCell id="ZqqSYVQHT3AgXe19ILbb-14" value="Drug 1&amp;nbsp;" style="rounded=0;whiteSpace=wrap;html=1;fillColor=#fff2cc;strokeColor=#d6b656;" vertex="1" parent="1">
          <mxGeometry x="500" y="520" width="120" height="30" as="geometry" />
        </mxCell>
        <mxCell id="ZqqSYVQHT3AgXe19ILbb-15" value="Disease 1" style="rounded=0;whiteSpace=wrap;html=1;fillColor=#f8cecc;strokeColor=#b85450;" vertex="1" parent="1">
          <mxGeometry x="640" y="520" width="120" height="30" as="geometry" />
        </mxCell>
        <mxCell id="ZqqSYVQHT3AgXe19ILbb-16" value="Drug 1&amp;nbsp;" style="rounded=0;whiteSpace=wrap;html=1;fillColor=#fff2cc;strokeColor=#d6b656;" vertex="1" parent="1">
          <mxGeometry x="500" y="560" width="120" height="30" as="geometry" />
        </mxCell>
        <mxCell id="ZqqSYVQHT3AgXe19ILbb-17" value="Disease 2" style="rounded=0;whiteSpace=wrap;html=1;fillColor=#f8cecc;strokeColor=#b85450;" vertex="1" parent="1">
          <mxGeometry x="640" y="560" width="120" height="30" as="geometry" />
        </mxCell>
        <mxCell id="ZqqSYVQHT3AgXe19ILbb-18" value="Drug 1" style="rounded=0;whiteSpace=wrap;html=1;fillColor=#fff2cc;strokeColor=#d6b656;" vertex="1" parent="1">
          <mxGeometry x="500" y="610" width="120" height="30" as="geometry" />
        </mxCell>
        <mxCell id="ZqqSYVQHT3AgXe19ILbb-19" value="Disease 3" style="rounded=0;whiteSpace=wrap;html=1;fillColor=#f8cecc;strokeColor=#b85450;" vertex="1" parent="1">
          <mxGeometry x="640" y="610" width="120" height="30" as="geometry" />
        </mxCell>
        <mxCell id="ZqqSYVQHT3AgXe19ILbb-20" value="..." style="text;html=1;align=center;verticalAlign=middle;whiteSpace=wrap;rounded=0;fontStyle=1" vertex="1" parent="1">
          <mxGeometry x="600" y="660" width="60" height="30" as="geometry" />
        </mxCell>
        <mxCell id="ZqqSYVQHT3AgXe19ILbb-21" value="Drug n" style="rounded=0;whiteSpace=wrap;html=1;fillColor=#fff2cc;strokeColor=#d6b656;" vertex="1" parent="1">
          <mxGeometry x="500" y="700" width="120" height="30" as="geometry" />
        </mxCell>
        <mxCell id="ZqqSYVQHT3AgXe19ILbb-22" value="Disease n" style="rounded=0;whiteSpace=wrap;html=1;fillColor=#f8cecc;strokeColor=#b85450;" vertex="1" parent="1">
          <mxGeometry x="640" y="700" width="120" height="30" as="geometry" />
        </mxCell>
        <mxCell id="ZqqSYVQHT3AgXe19ILbb-23" value="True" style="rounded=0;whiteSpace=wrap;html=1;fillColor=#fff2cc;strokeColor=#d6b656;" vertex="1" parent="1">
          <mxGeometry x="790" y="520" width="120" height="30" as="geometry" />
        </mxCell>
        <mxCell id="ZqqSYVQHT3AgXe19ILbb-24" value="False" style="rounded=0;whiteSpace=wrap;html=1;fillColor=#fff2cc;strokeColor=#d6b656;" vertex="1" parent="1">
          <mxGeometry x="790" y="560" width="120" height="30" as="geometry" />
        </mxCell>
        <mxCell id="ZqqSYVQHT3AgXe19ILbb-25" value="False" style="rounded=0;whiteSpace=wrap;html=1;fillColor=#fff2cc;strokeColor=#d6b656;" vertex="1" parent="1">
          <mxGeometry x="790" y="610" width="120" height="30" as="geometry" />
        </mxCell>
        <mxCell id="ZqqSYVQHT3AgXe19ILbb-26" value="&lt;h1 style=&quot;margin-top: 0px;&quot;&gt;Matrix Dataframe + Flags&lt;/h1&gt;&lt;p&gt;&lt;br&gt;&lt;/p&gt;" style="text;html=1;whiteSpace=wrap;overflow=hidden;rounded=0;" vertex="1" parent="1">
          <mxGeometry x="530" y="430" width="380" height="50" as="geometry" />
        </mxCell>
        <mxCell id="ZqqSYVQHT3AgXe19ILbb-27" value="Source" style="text;html=1;align=center;verticalAlign=middle;whiteSpace=wrap;rounded=0;" vertex="1" parent="1">
          <mxGeometry x="120" y="490" width="60" height="30" as="geometry" />
        </mxCell>
        <mxCell id="ZqqSYVQHT3AgXe19ILbb-28" value="Target" style="text;html=1;align=center;verticalAlign=middle;whiteSpace=wrap;rounded=0;" vertex="1" parent="1">
          <mxGeometry x="260" y="490" width="60" height="30" as="geometry" />
        </mxCell>
        <mxCell id="ZqqSYVQHT3AgXe19ILbb-29" value="Source" style="text;html=1;align=center;verticalAlign=middle;whiteSpace=wrap;rounded=0;" vertex="1" parent="1">
          <mxGeometry x="530" y="490" width="60" height="30" as="geometry" />
        </mxCell>
        <mxCell id="ZqqSYVQHT3AgXe19ILbb-30" value="Target" style="text;html=1;align=center;verticalAlign=middle;whiteSpace=wrap;rounded=0;" vertex="1" parent="1">
          <mxGeometry x="670" y="490" width="60" height="30" as="geometry" />
        </mxCell>
        <mxCell id="ZqqSYVQHT3AgXe19ILbb-31" value="High Evidence&lt;div&gt;Matrix Pairs&lt;/div&gt;" style="text;html=1;align=center;verticalAlign=middle;whiteSpace=wrap;rounded=0;" vertex="1" parent="1">
          <mxGeometry x="780" y="490" width="150" height="30" as="geometry" />
        </mxCell>
        <mxCell id="ZqqSYVQHT3AgXe19ILbb-32" value="High Evidence Crowd-sourced Pairs" style="text;html=1;align=center;verticalAlign=middle;whiteSpace=wrap;rounded=0;" vertex="1" parent="1">
          <mxGeometry x="940" y="490" width="150" height="30" as="geometry" />
        </mxCell>
        <mxCell id="ZqqSYVQHT3AgXe19ILbb-33" value="False" style="rounded=0;whiteSpace=wrap;html=1;fillColor=#fff2cc;strokeColor=#d6b656;" vertex="1" parent="1">
          <mxGeometry x="955" y="520" width="120" height="30" as="geometry" />
        </mxCell>
        <mxCell id="ZqqSYVQHT3AgXe19ILbb-34" value="True" style="rounded=0;whiteSpace=wrap;html=1;fillColor=#fff2cc;strokeColor=#d6b656;" vertex="1" parent="1">
          <mxGeometry x="955" y="560" width="120" height="30" as="geometry" />
        </mxCell>
        <mxCell id="ZqqSYVQHT3AgXe19ILbb-35" value="False" style="rounded=0;whiteSpace=wrap;html=1;fillColor=#fff2cc;strokeColor=#d6b656;" vertex="1" parent="1">
          <mxGeometry x="955" y="610" width="120" height="30" as="geometry" />
        </mxCell>
        <mxCell id="ZqqSYVQHT3AgXe19ILbb-36" value="Archived Biomedical Rationale" style="text;html=1;align=center;verticalAlign=middle;whiteSpace=wrap;rounded=0;" vertex="1" parent="1">
          <mxGeometry x="1110" y="485" width="150" height="30" as="geometry" />
        </mxCell>
        <mxCell id="ZqqSYVQHT3AgXe19ILbb-37" value="False" style="rounded=0;whiteSpace=wrap;html=1;fillColor=#fff2cc;strokeColor=#d6b656;" vertex="1" parent="1">
          <mxGeometry x="1120" y="520" width="120" height="30" as="geometry" />
        </mxCell>
        <mxCell id="ZqqSYVQHT3AgXe19ILbb-38" value="False" style="rounded=0;whiteSpace=wrap;html=1;fillColor=#fff2cc;strokeColor=#d6b656;" vertex="1" parent="1">
          <mxGeometry x="1120" y="610" width="120" height="30" as="geometry" />
        </mxCell>
        <mxCell id="ZqqSYVQHT3AgXe19ILbb-39" value="False" style="rounded=0;whiteSpace=wrap;html=1;fillColor=#fff2cc;strokeColor=#d6b656;" vertex="1" parent="1">
          <mxGeometry x="1120" y="560" width="120" height="30" as="geometry" />
        </mxCell>
        <mxCell id="ZqqSYVQHT3AgXe19ILbb-40" value="..." style="text;html=1;align=center;verticalAlign=middle;whiteSpace=wrap;rounded=0;fontStyle=1" vertex="1" parent="1">
          <mxGeometry x="890" y="660" width="60" height="30" as="geometry" />
        </mxCell>
        <mxCell id="ZqqSYVQHT3AgXe19ILbb-43" value="False" style="rounded=0;whiteSpace=wrap;html=1;fillColor=#fff2cc;strokeColor=#d6b656;" vertex="1" parent="1">
          <mxGeometry x="790" y="700" width="120" height="30" as="geometry" />
        </mxCell>
        <mxCell id="ZqqSYVQHT3AgXe19ILbb-44" value="False" style="rounded=0;whiteSpace=wrap;html=1;fillColor=#fff2cc;strokeColor=#d6b656;" vertex="1" parent="1">
          <mxGeometry x="955" y="700" width="120" height="30" as="geometry" />
        </mxCell>
        <mxCell id="ZqqSYVQHT3AgXe19ILbb-45" value="True" style="rounded=0;whiteSpace=wrap;html=1;fillColor=#fff2cc;strokeColor=#d6b656;" vertex="1" parent="1">
          <mxGeometry x="1120" y="700" width="120" height="30" as="geometry" />
        </mxCell>
        <mxCell id="ZqqSYVQHT3AgXe19ILbb-46" value="" style="endArrow=none;dashed=1;html=1;dashPattern=1 3;strokeWidth=2;rounded=0;" edge="1" parent="1">
          <mxGeometry width="50" height="50" relative="1" as="geometry">
            <mxPoint x="770" y="770" as="sourcePoint" />
            <mxPoint x="770" y="490" as="targetPoint" />
          </mxGeometry>
        </mxCell>
        <mxCell id="ZqqSYVQHT3AgXe19ILbb-47" value="" style="shape=curlyBracket;whiteSpace=wrap;html=1;rounded=1;flipH=1;labelPosition=right;verticalLabelPosition=middle;align=left;verticalAlign=middle;rotation=90;" vertex="1" parent="1">
          <mxGeometry x="1000" y="550" width="20" height="460" as="geometry" />
        </mxCell>
        <mxCell id="ZqqSYVQHT3AgXe19ILbb-48" value="These flags can be used for model evaluation/performance tracking" style="text;html=1;align=center;verticalAlign=middle;whiteSpace=wrap;rounded=0;" vertex="1" parent="1">
          <mxGeometry x="870" y="790" width="270" height="30" as="geometry" />
        </mxCell>
      </root>
    </mxGraphModel>
  </diagram>
</mxfile>
